# xmcd
#
# Track frame offsets: 
#        182
#        13112
#        23112
#        35330
#        52285
#        72967
#        88772
#        102590
#        112925
#        125625
#
# Disc length: 2048 seconds
#
# Revision: 6
# Processed by: cddbd v1.5.2PL0 Copyright (c) Steve Scherf et al.
# Submitted via: ExactAudioCopyFreeDBPlugin 1.0
#
DISCID=8907fe0a
DTITLE=Buffalo Springfield - Buffalo Springfield Again [HDCD RM 1990]
DYEAR=1967
DGENRE=Folk-Rock
TTITLE0=Mr. Soul
TTITLE1=A Child's Claim to Fame
TTITLE2=Everydays
TTITLE3=Expecting to Fly
TTITLE4=Bluebird
TTITLE5=Hung Upside Down
TTITLE6=Sad Memory
TTITLE7=Good Time Boy
TTITLE8=Rock and Roll Woman
TTITLE9=Broken Arrow
EXTD=
EXTT0=
EXTT1=
EXTT2=
EXTT3=
EXTT4=
EXTT5=
EXTT6=
EXTT7=
EXTT8=
EXTT9=
PLAYORDER=
